<?xml version="1.0" standalone="no"?>
<!DOCTYPE svg PUBLIC "-//W3C//DTD SVG 20010904//EN"
 "http://www.w3.org/TR/2001/REC-SVG-20010904/DTD/svg10.dtd">
<svg version="1.0" xmlns="http://www.w3.org/2000/svg"
 width="431.000000pt" height="431.000000pt" viewBox="0 0 431.000000 431.000000"
 preserveAspectRatio="xMidYMid meet">
<metadata>
Created by potrace 1.11, written by Peter Selinger 2001-2013
</metadata>
<g transform="translate(0.000000,431.000000) scale(0.100000,-0.100000)"
fill="#000000" stroke="none">
<path d="M1521 3914 c-12 -15 -21 -23 -21 -20 0 4 -11 -6 -25 -22 -16 -20 -25
-42 -25 -65 l0 -35 -37 10 c-21 5 -42 13 -46 18 -5 4 -33 -18 -63 -48 -44 -45
-54 -61 -54 -90 0 -31 -2 -34 -22 -28 -71 20 -74 20 -121 -27 -25 -25 -48 -43
-53 -39 -4 4 -4 2 0 -5 3 -6 3 -14 -2 -17 -5 -3 -7 -19 -4 -36 4 -30 3 -31
-24 -24 -16 4 -39 10 -50 15 -17 6 -28 1 -48 -22 -14 -16 -30 -29 -35 -29 -5
0 -16 -11 -25 -25 -17 -26 -17 -74 -16 -2376 l0 -246 233 -63 c127 -34 374
-100 547 -146 173 -46 389 -104 480 -129 91 -24 377 -101 635 -170 259 -69
477 -128 486 -130 9 -3 36 15 67 45 l52 50 0 1597 c0 878 -3 1600 -8 1604 -4
3 -169 50 -367 102 -198 53 -596 160 -884 237 -288 77 -530 140 -537 140 -7 0
-22 -12 -33 -26z m404 -400 c77 -20 143 -41 146 -47 4 -5 11 -7 17 -3 8 5 89
-14 132 -31 8 -3 24 -8 36 -10 11 -2 193 -49 405 -106 l384 -102 3 -1337 c2
-1069 0 -1337 -10 -1333 -13 5 -371 103 -398 110 -8 2 -23 4 -33 4 -11 1 -15
6 -11 13 4 7 3 8 -4 4 -10 -6 -90 10 -167 35 -16 5 -192 52 -390 105 -198 53
-400 107 -450 120 -49 14 -97 26 -106 29 -24 5 -290 75 -312 81 -16 5 -17 67
-17 1140 0 895 3 1134 13 1133 6 0 27 -6 46 -13 34 -12 35 -11 88 40 44 43 53
58 53 87 l0 35 48 -12 47 -12 3 -136 3 -136 -50 13 -49 13 -51 -52 -52 -52 3
-105 c2 -75 6 -103 15 -102 7 2 25 -2 40 -9 15 -6 31 -11 35 -10 4 1 19 -3 34
-8 15 -6 43 -13 63 -16 20 -3 42 -11 49 -16 6 -6 12 -8 12 -5 0 3 33 -3 73
-14 l72 -18 53 51 52 52 0 334 c0 313 1 333 18 328 9 -2 80 -21 157 -42z"/>
<path d="M2095 3331 c-3 -5 -2 -12 3 -15 5 -3 9 1 9 9 0 17 -3 19 -12 6z"/>
<path d="M2343 3333 c3 -5 -17 -30 -44 -57 -40 -39 -49 -53 -49 -83 0 -32 -2
-35 -25 -29 -14 3 -36 9 -50 12 -20 5 -33 -3 -75 -45 l-50 -50 0 -200 0 -200
43 -11 c23 -6 66 -18 95 -26 43 -12 57 -13 70 -3 14 11 15 11 5 -1 -7 -8 -13
-29 -13 -47 0 -38 3 -37 -56 -22 l-44 11 -50 -52 c-40 -42 -50 -59 -50 -86 0
-19 -1 -34 -2 -34 -2 0 -24 7 -49 14 l-46 14 -52 -52 -51 -52 0 -199 0 -200
99 -26 99 -26 51 51 51 52 0 133 0 134 28 -7 c15 -3 126 -32 247 -65 121 -33
222 -58 225 -56 3 2 4 -89 2 -201 -2 -157 -6 -203 -15 -198 -7 4 -8 3 -4 -2 5
-5 14 -9 20 -9 7 0 53 -11 103 -23 l91 -23 51 51 52 52 0 198 0 199 -52 15
c-29 8 -74 20 -100 27 l-48 11 0 102 0 101 -78 19 c-120 29 -122 30 -122 70
l0 35 47 -14 48 -15 52 52 53 52 0 201 0 200 -97 25 -98 25 -3 101 -3 101 -87
23 c-48 12 -95 27 -106 32 -10 6 -16 6 -13 1z m187 -283 c0 -5 -5 -10 -11 -10
-5 0 -7 5 -4 10 3 6 8 10 11 10 2 0 4 -4 4 -10z m-116 -66 l36 -6 0 -138 0
-138 -46 14 c-26 7 -49 12 -53 10 -3 -2 -5 59 -3 136 3 114 6 139 17 134 7 -2
30 -8 49 -12z"/>
<path d="M2054 3288 c-4 -7 -4 -10 1 -6 4 4 15 2 24 -5 14 -11 14 -10 2 6 -16
20 -18 21 -27 5z"/>
<path d="M2915 2950 c3 -5 8 -10 11 -10 2 0 4 5 4 10 0 6 -5 10 -11 10 -5 0
-7 -4 -4 -10z"/>
<path d="M2839 2863 c-13 -16 -12 -17 4 -4 16 13 21 21 13 21 -2 0 -10 -8 -17
-17z"/>
<path d="M1475 2751 c-3 -5 -2 -12 3 -15 5 -3 9 1 9 9 0 17 -3 19 -12 6z"/>
<path d="M1239 2568 c-5 -18 -6 -38 -1 -34 7 8 12 36 6 36 -2 0 -4 -1 -5 -2z"/>
<path d="M1301 1946 l-51 -52 0 -99 0 -100 278 -74 c152 -40 342 -91 422 -113
80 -22 152 -42 160 -44 79 -19 110 -31 103 -38 -4 -5 -2 -6 5 -2 7 4 152 -29
321 -74 l308 -82 52 54 51 53 0 97 c0 83 -2 97 -17 102 -54 16 -282 78 -303
82 -14 2 -32 7 -40 11 -8 3 -24 8 -34 10 -11 2 -155 40 -320 84 -166 45 -341
92 -391 105 -253 68 -298 81 -285 86 8 2 -1 5 -20 5 -19 0 -44 3 -55 6 -11 3
-46 13 -77 20 l-57 14 -50 -51z"/>
<path d="M1333 1587 c1 -7 -4 -11 -11 -9 -8 1 -11 -1 -8 -6 3 -5 -10 -24 -29
-42 l-35 -34 0 -101 0 -100 205 -54 c114 -30 208 -58 211 -62 2 -5 12 -5 21
-2 9 4 14 2 11 -3 -3 -5 10 -10 29 -11 19 -1 43 -5 52 -9 9 -4 23 -8 33 -10 9
-2 150 -40 315 -84 164 -44 353 -94 420 -112 67 -17 120 -34 119 -37 -2 -3 9
-6 24 -7 15 -1 36 -5 46 -9 11 -4 32 -9 47 -11 16 -2 36 -8 45 -13 12 -7 29 4
70 44 l54 54 -1 97 c-1 53 -3 99 -5 102 -3 2 -120 35 -262 73 -141 38 -322 87
-403 109 -80 23 -154 43 -164 45 -40 9 -148 38 -432 114 -343 91 -355 94 -352
78z"/>
<path d="M2990 1070 c0 -5 5 -10 11 -10 5 0 7 5 4 10 -3 6 -8 10 -11 10 -2 0
-4 -4 -4 -10z"/>
<path d="M996 3552 c-3 -5 1 -9 9 -9 8 0 12 4 9 9 -3 4 -7 8 -9 8 -2 0 -6 -4
-9 -8z"/>
<path d="M3509 3373 c-13 -16 -12 -17 4 -4 9 7 17 15 17 17 0 8 -8 3 -21 -13z"/>
<path d="M3519 2383 c-13 -16 -12 -17 4 -4 16 13 21 21 13 21 -2 0 -10 -8 -17
-17z"/>
<path d="M3453 2325 c0 -8 4 -12 9 -9 5 3 6 10 3 15 -9 13 -12 11 -12 -6z"/>
<path d="M510 2189 c0 -5 5 -7 10 -4 6 3 10 8 10 11 0 2 -4 4 -10 4 -5 0 -10
-5 -10 -11z"/>
<path d="M3639 443 c-13 -16 -12 -17 4 -4 16 13 21 21 13 21 -2 0 -10 -8 -17
-17z"/>
</g>
</svg>
